<?xml version="1.0" encoding="UTF-8"?>
<!DOCTYPE svg PUBLIC "-//W3C//DTD SVG 1.1//EN" "http://www.w3.org/Graphics/SVG/1.1/DTD/svg11.dtd">
<!-- Creator: CorelDRAW 2017 -->
<svg xmlns="http://www.w3.org/2000/svg" xml:space="preserve" width="647.933mm" height="593.937mm" version="1.1" style="shape-rendering:geometricPrecision; text-rendering:geometricPrecision; image-rendering:optimizeQuality; fill-rule:evenodd; clip-rule:evenodd"
viewBox="0 0 13773.81 12625.95"
 xmlns:xlink="http://www.w3.org/1999/xlink">
 <defs>
  <style type="text/css">
   <![CDATA[
    .fil0 {fill:#278AE6}
   ]]>
  </style>
 </defs>
 <g id="Слой_x0020_1">
  <metadata id="CorelCorpID_0Corel-Layer"/>
  <g id="_1842042205216">
   <g id="_1909123652784">
    <g>
     <g>
      <path class="fil0" d="M13716.42 1836.49c-57.38,-57.38 -114.79,-114.79 -229.55,-114.79l-10904.28 0 -286.96 -1492.14c0,-114.79 -172.17,-229.56 -286.96,-229.56l-1721.73 0c-172.14,-0.03 -286.94,114.76 -286.94,286.94 0,172.17 114.79,286.96 286.96,286.96l1492.17 0 1377.38 7001.69c172.17,918.24 1033.04,1606.93 1951.28,1606.93l6599.94 0c172.17,0 286.96,-114.79 286.96,-286.96 0,-172.17 -114.79,-286.96 -286.96,-286.96l-6542.56 0c-459.13,0 -918.24,-229.55 -1147.83,-631.31l8379.07 -1147.8c114.79,0 229.56,-114.79 229.56,-229.55l1147.83 -4591.28c0,0 0,-114.79 -57.38,-172.17l-0 0zm-1606.96 4476.49l-8379.07 1090.42 -1033.04 -5165.18 10387.76 0 -975.65 4074.76 0 0z"/>
     </g>
    </g>
    <g>
     <g>
      <path class="fil0" d="M4878.21 9756.43c-803.45,0 -1434.76,631.31 -1434.76,1434.76 0,803.48 631.31,1434.76 1434.76,1434.76 803.48,0 1434.76,-631.31 1434.76,-1434.76 0.03,-803.45 -631.28,-1434.76 -1434.76,-1434.76zm0 2295.63c-459.14,0 -860.86,-401.75 -860.86,-860.86 0,-459.11 401.73,-860.86 860.86,-860.86 459.14,0 860.86,401.75 860.86,860.86 0,459.11 -401.73,860.86 -860.86,860.86z"/>
     </g>
    </g>
    <g>
     <g>
      <path class="fil0" d="M10617.32 9756.43c-803.48,0 -1434.76,631.31 -1434.76,1434.76 0,803.48 631.31,1434.76 1434.76,1434.76 803.48,0 1434.76,-631.31 1434.76,-1434.76 0,-803.45 -631.31,-1434.76 -1434.76,-1434.76zm0 2295.63c-459.13,0 -860.86,-401.75 -860.86,-860.86 0,-459.11 401.73,-860.86 860.86,-860.86 459.14,0 860.86,401.75 860.86,860.86 0,459.11 -401.76,860.86 -860.86,860.86z"/>
     </g>
    </g>
   </g>
  </g>
 </g>
</svg>
