<?xml version="1.0" encoding="UTF-8"?>
<!DOCTYPE svg PUBLIC "-//W3C//DTD SVG 1.1//EN" "http://www.w3.org/Graphics/SVG/1.1/DTD/svg11.dtd">
<!-- Creator: CorelDRAW 2017 -->
<svg xmlns="http://www.w3.org/2000/svg" xml:space="preserve" width="647.933mm" height="593.937mm" version="1.1" style="shape-rendering:geometricPrecision; text-rendering:geometricPrecision; image-rendering:optimizeQuality; fill-rule:evenodd; clip-rule:evenodd"
viewBox="0 0 13571.36 12440.38"
 xmlns:xlink="http://www.w3.org/1999/xlink">
 <defs>
  <style type="text/css">
   <![CDATA[
    .fil0 {fill:gray}
   ]]>
  </style>
 </defs>
 <g id="Слой_x0020_1">
  <metadata id="CorelCorpID_0Corel-Layer"/>
  <g id="_1842185808816">
   <g id="_1909123652784">
    <g>
     <g>
      <path class="fil0" d="M13514.82 1809.5c-56.54,-56.54 -113.1,-113.1 -226.18,-113.1l-10744.01 0 -282.75 -1470.21c0,-113.1 -169.64,-226.18 -282.75,-226.18l-1696.42 0c-169.61,-0.03 -282.72,113.08 -282.72,282.72 0,169.64 113.1,282.75 282.75,282.75l1470.24 0 1357.14 6898.78c169.64,904.75 1017.85,1583.32 1922.6,1583.32l6502.94 0c169.64,0 282.75,-113.1 282.75,-282.75 0,-169.64 -113.1,-282.75 -282.75,-282.75l-6446.4 0c-452.39,0 -904.75,-226.18 -1130.96,-622.03l8255.92 -1130.93c113.1,0 226.18,-113.1 226.18,-226.18l1130.96 -4523.8c0,0 0,-113.1 -56.54,-169.64l-0 0zm-1583.34 4410.69l-8255.92 1074.39 -1017.85 -5089.26 10235.09 0 -961.31 4014.87 0 0z"/>
     </g>
    </g>
    <g>
     <g>
      <path class="fil0" d="M4806.52 9613.03c-791.64,0 -1413.67,622.03 -1413.67,1413.67 0,791.67 622.03,1413.67 1413.67,1413.67 791.67,0 1413.67,-622.03 1413.67,-1413.67 0.03,-791.64 -622,-1413.67 -1413.67,-1413.67zm0 2261.89c-452.39,0 -848.21,-395.85 -848.21,-848.21 0,-452.36 395.82,-848.21 848.21,-848.21 452.39,0 848.21,395.85 848.21,848.21 0,452.36 -395.82,848.21 -848.21,848.21z"/>
     </g>
    </g>
    <g>
     <g>
      <path class="fil0" d="M10461.27 9613.03c-791.67,0 -1413.67,622.03 -1413.67,1413.67 0,791.67 622.03,1413.67 1413.67,1413.67 791.67,0 1413.67,-622.03 1413.67,-1413.67 0,-791.64 -622.03,-1413.67 -1413.67,-1413.67zm0 2261.89c-452.39,0 -848.21,-395.85 -848.21,-848.21 0,-452.36 395.82,-848.21 848.21,-848.21 452.39,0 848.21,395.85 848.21,848.21 0,452.36 -395.85,848.21 -848.21,848.21z"/>
     </g>
    </g>
   </g>
  </g>
 </g>
</svg>
